<svg xmlns="http://www.w3.org/2000/svg" xmlns:xlink="http://www.w3.org/1999/xlink" viewBox="0 0 396.22 185.25"><defs><style>.cls-1{fill:url(#Silver);}.cls-2{fill:url(#Silver-2);}</style><linearGradient id="Silver" x1="-9965.59" y1="405.25" x2="-9597.8" y2="405.25" gradientTransform="translate(9979.83 -312.65)" gradientUnits="userSpaceOnUse"><stop offset="0" stop-color="#edebe9"/><stop offset="0" stop-color="#e7e3e0"/><stop offset="0.06" stop-color="#d8d4d3"/><stop offset="0.19" stop-color="#b2adb0"/><stop offset="0.26" stop-color="#979297"/><stop offset="0.52" stop-color="#f7f7f7"/><stop offset="0.59" stop-color="#e9e8e9"/><stop offset="0.71" stop-color="#c4c1c3"/><stop offset="0.88" stop-color="#8b8689"/><stop offset="1" stop-color="#d9d9d9"/><stop offset="1" stop-color="#b1b1b1"/></linearGradient><linearGradient id="Silver-2" x1="-9979.83" y1="405.27" x2="-9583.61" y2="405.27" xlink:href="#Silver"/></defs><g id="Layer_2" data-name="Layer 2"><g id="Layer_1-2" data-name="Layer 1"><path class="cls-1" d="M348.83,14.19H47.39L14.24,44.38v96.44L47.39,171H348.83L382,140.77V44.43ZM139.76,131.94a91.71,91.71,0,0,1-31.89,5.32c-12.69,0-22.57-3.92-29.49-11.84S68,106.31,68,91.72q0-21.36,11.44-33.3C87,50.5,97.64,46.54,111.33,46.54A66.08,66.08,0,0,1,126,48.14a59.42,59.42,0,0,1,12,4l-7,18.7a41.79,41.79,0,0,0-19.61-4.71c-6.52,0-11.53,2.25-15.09,6.82S91,83.9,91,92.32c0,8.23,1.61,14.55,4.81,18.86s7.83,6.47,13.9,6.47a40.06,40.06,0,0,0,9.17-1V102.8H104.16V84.4h35.6Zm110.83,4.11H230.08V97.39c0-2,0-4.26.1-6.72s.3-8.48.75-18h-.5l-16.65,63.43H192.57l-16.9-63.54h-.5q1.2,16.26,1.2,25.23v38.31H156.61V47.84H186.3l17.2,62.64H204L220.8,47.84h29.79ZM320.1,98.74q-8.13,8.06-23.17,8.08h-6.27v29.23H268.35V47.84h28.58q15.65,0,23.47,7.27c5.27,4.87,7.87,11.79,7.87,20.76C328.27,85.75,325.52,93.38,320.1,98.74ZM296.43,67.1h-5.77V87.36h4.06a10.63,10.63,0,0,0,8-3c2-2,3-4.81,3-8.32C305.66,70.06,302.6,67.1,296.43,67.1Z"/><path class="cls-2" d="M354.3,0H41.87L0,38.11v109l41.87,38.16H354.3L396.22,147V38.16Zm34.8,143.93-37.56,34.2H44.63L7.12,144V41.27L44.63,7.07H351.54l37.56,34.2Z"/><path class="cls-1" d="M348.83,14.19H47.39L14.24,44.38v96.44L47.39,171H348.83L382,140.77V44.43ZM139.76,131.94a91.71,91.71,0,0,1-31.89,5.32c-12.69,0-22.57-3.92-29.49-11.84S68,106.31,68,91.72q0-21.36,11.44-33.3C87,50.5,97.64,46.54,111.33,46.54A66.08,66.08,0,0,1,126,48.14a59.42,59.42,0,0,1,12,4l-7,18.7a41.79,41.79,0,0,0-19.61-4.71c-6.52,0-11.53,2.25-15.09,6.82S91,83.9,91,92.32c0,8.23,1.61,14.55,4.81,18.86s7.83,6.47,13.9,6.47a40.06,40.06,0,0,0,9.17-1V102.8H104.16V84.4h35.6Zm110.83,4.11H230.08V97.39c0-2,0-4.26.1-6.72s.3-8.48.75-18h-.5l-16.65,63.43H192.57l-16.9-63.54h-.5q1.2,16.26,1.2,25.23v38.31H156.61V47.84H186.3l17.2,62.64H204L220.8,47.84h29.79ZM320.1,98.74q-8.13,8.06-23.17,8.08h-6.27v29.23H268.35V47.84h28.58q15.65,0,23.47,7.27c5.27,4.87,7.87,11.79,7.87,20.76C328.27,85.75,325.52,93.38,320.1,98.74ZM296.43,67.1h-5.77V87.36h4.06a10.63,10.63,0,0,0,8-3c2-2,3-4.81,3-8.32C305.66,70.06,302.6,67.1,296.43,67.1Z"/><path class="cls-1" d="M348.83,14.19H47.39L14.24,44.38v96.44L47.39,171H348.83L382,140.77V44.43ZM139.76,131.94a91.71,91.71,0,0,1-31.89,5.32c-12.69,0-22.57-3.92-29.49-11.84S68,106.31,68,91.72q0-21.36,11.44-33.3C87,50.5,97.64,46.54,111.33,46.54A66.08,66.08,0,0,1,126,48.14a59.42,59.42,0,0,1,12,4l-7,18.7a41.79,41.79,0,0,0-19.61-4.71c-6.52,0-11.53,2.25-15.09,6.82S91,83.9,91,92.32c0,8.23,1.61,14.55,4.81,18.86s7.83,6.47,13.9,6.47a40.06,40.06,0,0,0,9.17-1V102.8H104.16V84.4h35.6Zm110.83,4.11H230.08V97.39c0-2,0-4.26.1-6.72s.3-8.48.75-18h-.5l-16.65,63.43H192.57l-16.9-63.54h-.5q1.2,16.26,1.2,25.23v38.31H156.61V47.84H186.3l17.2,62.64H204L220.8,47.84h29.79ZM320.1,98.74q-8.13,8.06-23.17,8.08h-6.27v29.23H268.35V47.84h28.58q15.65,0,23.47,7.27c5.27,4.87,7.87,11.79,7.87,20.76C328.27,85.75,325.52,93.38,320.1,98.74ZM296.43,67.1h-5.77V87.36h4.06a10.63,10.63,0,0,0,8-3c2-2,3-4.81,3-8.32C305.66,70.06,302.6,67.1,296.43,67.1Z"/></g></g></svg>