<svg xmlns="http://www.w3.org/2000/svg" xmlns:xlink="http://www.w3.org/1999/xlink" viewBox="0 0 396.22 185.25"><defs><style>.cls-1{fill:url(#Silver);}.cls-2{fill:url(#Silver-2);}.cls-3{fill:url(#Silver-3);}</style><linearGradient id="Silver" x1="-9715.1" y1="393.66" x2="-9699.55" y2="393.66" gradientTransform="translate(9979.83 -312.65)" gradientUnits="userSpaceOnUse"><stop offset="0" stop-color="#edebe9"/><stop offset="0" stop-color="#e7e3e0"/><stop offset="0.06" stop-color="#d8d4d3"/><stop offset="0.19" stop-color="#b2adb0"/><stop offset="0.26" stop-color="#979297"/><stop offset="0.52" stop-color="#f7f7f7"/><stop offset="0.59" stop-color="#e9e8e9"/><stop offset="0.71" stop-color="#c4c1c3"/><stop offset="0.88" stop-color="#8b8689"/><stop offset="1" stop-color="#d9d9d9"/><stop offset="1" stop-color="#b1b1b1"/></linearGradient><linearGradient id="Silver-2" x1="-9965.59" y1="405.25" x2="-9597.8" y2="405.25" xlink:href="#Silver"/><linearGradient id="Silver-3" x1="-9979.83" y1="405.27" x2="-9583.61" y2="405.27" xlink:href="#Silver"/></defs><g id="Layer_2" data-name="Layer 2"><g id="Layer_1-2" data-name="Layer 1"><path class="cls-1" d="M277.12,85.5l3.16,14.5H264.74q4.58-20.76,5.86-27.84c.9-4.71,1.51-8.12,1.81-10.13.3,2.21,1,5.87,2,11S276.42,82.29,277.12,85.5Z"/><path class="cls-2" d="M143.32,85.5c-.75-3.21-1.6-7.42-2.65-12.48s-1.76-8.78-2.11-11c-.3,2-.85,5.42-1.75,10.13s-2.86,14-5.87,27.84h15.54Zm0,0c-.75-3.21-1.6-7.42-2.65-12.48s-1.76-8.78-2.11-11c-.3,2-.85,5.42-1.75,10.13s-2.86,14-5.87,27.84h15.54ZM348.83,14.19H47.39L14.24,44.38v96.44L47.39,171H348.83L382,140.77V44.43ZM93.58,136.05H73.77v-36h-23v36H31V47.84H50.8v32.7h23V47.84H93.58Zm60.58,0-3.61-16.5H126.83l-3.66,16.5H101.45l23.82-88.61H151.6l24.12,88.61Zm77.33,0H183.64V47.84h19.71v69h28.14Zm56.46,0-3.56-16.5H260.67L257,136.05H235.3l23.82-88.61h26.33l24.12,88.61Zm77.33,0H317.44V47.84h19.71v69h28.13ZM140.67,73q-1.59-7.68-2.11-11c-.3,2-.85,5.42-1.75,10.13s-2.86,14-5.87,27.84h15.54l-3.16-14.5C142.57,82.29,141.72,78.08,140.67,73Zm2.65,12.48c-.75-3.21-1.6-7.42-2.65-12.48s-1.76-8.78-2.11-11c-.3,2-.85,5.42-1.75,10.13s-2.86,14-5.87,27.84h15.54Zm0,0c-.75-3.21-1.6-7.42-2.65-12.48s-1.76-8.78-2.11-11c-.3,2-.85,5.42-1.75,10.13s-2.86,14-5.87,27.84h15.54Z"/><path class="cls-3" d="M354.3,0H41.87L0,38.11v109l41.87,38.16H354.3L396.22,147V38.16Zm34.8,143.93-37.56,34.2H44.63L7.12,144V41.27L44.63,7.07H351.54l37.56,34.2Z"/><path class="cls-1" d="M277.12,85.5l3.16,14.5H264.74q4.58-20.76,5.86-27.84c.9-4.71,1.51-8.12,1.81-10.13.3,2.21,1,5.87,2,11S276.42,82.29,277.12,85.5Z"/><path class="cls-2" d="M143.32,85.5c-.75-3.21-1.6-7.42-2.65-12.48s-1.76-8.78-2.11-11c-.3,2-.85,5.42-1.75,10.13s-2.86,14-5.87,27.84h15.54Zm0,0c-.75-3.21-1.6-7.42-2.65-12.48s-1.76-8.78-2.11-11c-.3,2-.85,5.42-1.75,10.13s-2.86,14-5.87,27.84h15.54ZM348.83,14.19H47.39L14.24,44.38v96.44L47.39,171H348.83L382,140.77V44.43ZM93.58,136.05H73.77v-36h-23v36H31V47.84H50.8v32.7h23V47.84H93.58Zm60.58,0-3.61-16.5H126.83l-3.66,16.5H101.45l23.82-88.61H151.6l24.12,88.61Zm77.33,0H183.64V47.84h19.71v69h28.14Zm56.46,0-3.56-16.5H260.67L257,136.05H235.3l23.82-88.61h26.33l24.12,88.61Zm77.33,0H317.44V47.84h19.71v69h28.13ZM140.67,73q-1.59-7.68-2.11-11c-.3,2-.85,5.42-1.75,10.13s-2.86,14-5.87,27.84h15.54l-3.16-14.5C142.57,82.29,141.72,78.08,140.67,73Zm2.65,12.48c-.75-3.21-1.6-7.42-2.65-12.48s-1.76-8.78-2.11-11c-.3,2-.85,5.42-1.75,10.13s-2.86,14-5.87,27.84h15.54Zm0,0c-.75-3.21-1.6-7.42-2.65-12.48s-1.76-8.78-2.11-11c-.3,2-.85,5.42-1.75,10.13s-2.86,14-5.87,27.84h15.54Z"/><path class="cls-1" d="M277.12,85.5l3.16,14.5H264.74q4.58-20.76,5.86-27.84c.9-4.71,1.51-8.12,1.81-10.13.3,2.21,1,5.87,2,11S276.42,82.29,277.12,85.5Z"/><path class="cls-2" d="M143.32,85.5c-.75-3.21-1.6-7.42-2.65-12.48s-1.76-8.78-2.11-11c-.3,2-.85,5.42-1.75,10.13s-2.86,14-5.87,27.84h15.54Zm0,0c-.75-3.21-1.6-7.42-2.65-12.48s-1.76-8.78-2.11-11c-.3,2-.85,5.42-1.75,10.13s-2.86,14-5.87,27.84h15.54ZM348.83,14.19H47.39L14.24,44.38v96.44L47.39,171H348.83L382,140.77V44.43ZM93.58,136.05H73.77v-36h-23v36H31V47.84H50.8v32.7h23V47.84H93.58Zm60.58,0-3.61-16.5H126.83l-3.66,16.5H101.45l23.82-88.61H151.6l24.12,88.61Zm77.33,0H183.64V47.84h19.71v69h28.14Zm56.46,0-3.56-16.5H260.67L257,136.05H235.3l23.82-88.61h26.33l24.12,88.61Zm77.33,0H317.44V47.84h19.71v69h28.13ZM140.67,73q-1.59-7.68-2.11-11c-.3,2-.85,5.42-1.75,10.13s-2.86,14-5.87,27.84h15.54l-3.16-14.5C142.57,82.29,141.72,78.08,140.67,73Zm2.65,12.48c-.75-3.21-1.6-7.42-2.65-12.48s-1.76-8.78-2.11-11c-.3,2-.85,5.42-1.75,10.13s-2.86,14-5.87,27.84h15.54Zm0,0c-.75-3.21-1.6-7.42-2.65-12.48s-1.76-8.78-2.11-11c-.3,2-.85,5.42-1.75,10.13s-2.86,14-5.87,27.84h15.54Z"/></g></g></svg>