<svg xmlns="http://www.w3.org/2000/svg" xmlns:xlink="http://www.w3.org/1999/xlink" viewBox="0 0 396.22 185.25"><defs><style>.cls-1{fill:url(#Silver);}.cls-2{fill:url(#Silver-2);}</style><linearGradient id="Silver" x1="-9965.59" y1="405.25" x2="-9597.8" y2="405.25" gradientTransform="translate(9979.83 -312.65)" gradientUnits="userSpaceOnUse"><stop offset="0" stop-color="#edebe9"/><stop offset="0" stop-color="#e7e3e0"/><stop offset="0.06" stop-color="#d8d4d3"/><stop offset="0.19" stop-color="#b2adb0"/><stop offset="0.26" stop-color="#979297"/><stop offset="0.52" stop-color="#f7f7f7"/><stop offset="0.59" stop-color="#e9e8e9"/><stop offset="0.71" stop-color="#c4c1c3"/><stop offset="0.88" stop-color="#8b8689"/><stop offset="1" stop-color="#d9d9d9"/><stop offset="1" stop-color="#b1b1b1"/></linearGradient><linearGradient id="Silver-2" x1="-9979.83" y1="405.27" x2="-9583.61" y2="405.27" xlink:href="#Silver"/></defs><g id="Layer_2" data-name="Layer 2"><g id="Layer_1-2" data-name="Layer 1"><path class="cls-1" d="M348.83,14.19H47.39L14.24,44.38v96.44L47.39,171H348.83L382,140.77V44.43ZM120.61,136.05H95.68V47.84h24.93ZM164.24,76c1.85,1.36,6.92,3.87,15.14,7.48,7.93,3.41,13.39,7.07,16.5,11s4.61,8.88,4.61,14.84a25.27,25.27,0,0,1-4.36,14.6,28.06,28.06,0,0,1-12.49,9.88,47.93,47.93,0,0,1-19.15,3.51,81.31,81.31,0,0,1-15.35-1.21,59.17,59.17,0,0,1-12.94-4.31V110.48A73.6,73.6,0,0,0,151,115.94a56.83,56.83,0,0,0,14,2c3.71,0,6.42-.6,8.12-1.86a5.54,5.54,0,0,0,2.56-4.71,5,5,0,0,0-1-3.16,10.7,10.7,0,0,0-3.31-2.76c-1.51-1-5.62-2.81-12.19-5.66a58.51,58.51,0,0,1-13.49-7.63A23.52,23.52,0,0,1,139,83.7a28.09,28.09,0,0,1-2.15-11.33c0-8.13,3.05-14.45,9.22-19s14.6-6.82,25.38-6.82a73.82,73.82,0,0,1,29.08,6.37l-7.62,18.4c-8.57-3.81-16-5.67-22.21-5.67-3.21,0-5.57.55-7,1.61a5,5,0,0,0-2.21,4.06C161.43,73,162.33,74.57,164.24,76Zm125,49.7q-11.37,11.6-33.3,11.59-21.58,0-33.1-11.64t-11.53-33.9q0-22,11.48-33.65t33.3-11.63q21.88,0,33.2,11.53c7.52,7.67,11.33,19,11.33,33.85S296.78,118,289.21,125.67ZM256.06,66Q237.4,66,237.4,91.82q0,25.58,18.51,25.58c6.32,0,10.93-2.06,14-6.22s4.56-10.58,4.56-19.36-1.55-15.29-4.61-19.51S262.18,66,256.06,66Z"/><path class="cls-2" d="M354.3,0H41.87L0,38.11v109l41.87,38.16H354.3L396.22,147V38.16Zm34.8,143.93-37.56,34.2H44.63L7.12,144V41.27L44.63,7.07H351.54l37.56,34.2Z"/><path class="cls-1" d="M348.83,14.19H47.39L14.24,44.38v96.44L47.39,171H348.83L382,140.77V44.43ZM120.61,136.05H95.68V47.84h24.93ZM164.24,76c1.85,1.36,6.92,3.87,15.14,7.48,7.93,3.41,13.39,7.07,16.5,11s4.61,8.88,4.61,14.84a25.27,25.27,0,0,1-4.36,14.6,28.06,28.06,0,0,1-12.49,9.88,47.93,47.93,0,0,1-19.15,3.51,81.31,81.31,0,0,1-15.35-1.21,59.17,59.17,0,0,1-12.94-4.31V110.48A73.6,73.6,0,0,0,151,115.94a56.83,56.83,0,0,0,14,2c3.71,0,6.42-.6,8.12-1.86a5.54,5.54,0,0,0,2.56-4.71,5,5,0,0,0-1-3.16,10.7,10.7,0,0,0-3.31-2.76c-1.51-1-5.62-2.81-12.19-5.66a58.51,58.51,0,0,1-13.49-7.63A23.52,23.52,0,0,1,139,83.7a28.09,28.09,0,0,1-2.15-11.33c0-8.13,3.05-14.45,9.22-19s14.6-6.82,25.38-6.82a73.82,73.82,0,0,1,29.08,6.37l-7.62,18.4c-8.57-3.81-16-5.67-22.21-5.67-3.21,0-5.57.55-7,1.61a5,5,0,0,0-2.21,4.06C161.43,73,162.33,74.57,164.24,76Zm125,49.7q-11.37,11.6-33.3,11.59-21.58,0-33.1-11.64t-11.53-33.9q0-22,11.48-33.65t33.3-11.63q21.88,0,33.2,11.53c7.52,7.67,11.33,19,11.33,33.85S296.78,118,289.21,125.67ZM256.06,66Q237.4,66,237.4,91.82q0,25.58,18.51,25.58c6.32,0,10.93-2.06,14-6.22s4.56-10.58,4.56-19.36-1.55-15.29-4.61-19.51S262.18,66,256.06,66Z"/><path class="cls-1" d="M348.83,14.19H47.39L14.24,44.38v96.44L47.39,171H348.83L382,140.77V44.43ZM120.61,136.05H95.68V47.84h24.93ZM164.24,76c1.85,1.36,6.92,3.87,15.14,7.48,7.93,3.41,13.39,7.07,16.5,11s4.61,8.88,4.61,14.84a25.27,25.27,0,0,1-4.36,14.6,28.06,28.06,0,0,1-12.49,9.88,47.93,47.93,0,0,1-19.15,3.51,81.31,81.31,0,0,1-15.35-1.21,59.17,59.17,0,0,1-12.94-4.31V110.48A73.6,73.6,0,0,0,151,115.94a56.83,56.83,0,0,0,14,2c3.71,0,6.42-.6,8.12-1.86a5.54,5.54,0,0,0,2.56-4.71,5,5,0,0,0-1-3.16,10.7,10.7,0,0,0-3.31-2.76c-1.51-1-5.62-2.81-12.19-5.66a58.51,58.51,0,0,1-13.49-7.63A23.52,23.52,0,0,1,139,83.7a28.09,28.09,0,0,1-2.15-11.33c0-8.13,3.05-14.45,9.22-19s14.6-6.82,25.38-6.82a73.82,73.82,0,0,1,29.08,6.37l-7.62,18.4c-8.57-3.81-16-5.67-22.21-5.67-3.21,0-5.57.55-7,1.61a5,5,0,0,0-2.21,4.06C161.43,73,162.33,74.57,164.24,76Zm125,49.7q-11.37,11.6-33.3,11.59-21.58,0-33.1-11.64t-11.53-33.9q0-22,11.48-33.65t33.3-11.63q21.88,0,33.2,11.53c7.52,7.67,11.33,19,11.33,33.85S296.78,118,289.21,125.67ZM256.06,66Q237.4,66,237.4,91.82q0,25.58,18.51,25.58c6.32,0,10.93-2.06,14-6.22s4.56-10.58,4.56-19.36-1.55-15.29-4.61-19.51S262.18,66,256.06,66Z"/></g></g></svg>