<svg xmlns="http://www.w3.org/2000/svg" xmlns:xlink="http://www.w3.org/1999/xlink" viewBox="0 0 1845.24 411.89"><defs><style>.cls-1{fill:url(#linear-gradient);}.cls-2{fill:url(#linear-gradient-2);}.cls-3{fill:url(#linear-gradient-3);}.cls-4{fill:url(#linear-gradient-4);}.cls-5{fill:url(#linear-gradient-5);}.cls-6{fill:url(#linear-gradient-6);}.cls-7{fill:url(#linear-gradient-7);}.cls-8{fill:url(#linear-gradient-8);}.cls-9{fill:url(#linear-gradient-9);}.cls-10{fill:url(#linear-gradient-10);}.cls-11{fill:url(#linear-gradient-11);}</style><linearGradient id="linear-gradient" x1="66.14" y1="-975.91" x2="50.23" y2="2116.3" gradientUnits="userSpaceOnUse"><stop offset="0" stop-color="#4682c3"/><stop offset="0.25" stop-color="#3eb9eb"/><stop offset="0.5" stop-color="#87ceeb"/><stop offset="0.75" stop-color="#acd7e4"/><stop offset="1" stop-color="#b0dce3"/></linearGradient><linearGradient id="linear-gradient-2" x1="199.19" y1="-975.22" x2="183.28" y2="2116.99" xlink:href="#linear-gradient"/><linearGradient id="linear-gradient-3" x1="532.92" y1="-973.5" x2="517.01" y2="2118.7" xlink:href="#linear-gradient"/><linearGradient id="linear-gradient-4" x1="720.95" y1="-972.54" x2="705.03" y2="2119.67" xlink:href="#linear-gradient"/><linearGradient id="linear-gradient-5" x1="892.48" y1="-971.65" x2="876.57" y2="2120.55" xlink:href="#linear-gradient"/><linearGradient id="linear-gradient-6" x1="1070.62" y1="-970.74" x2="1054.71" y2="2121.47" xlink:href="#linear-gradient"/><linearGradient id="linear-gradient-7" x1="1201.11" y1="-970.07" x2="1185.2" y2="2122.14" xlink:href="#linear-gradient"/><linearGradient id="linear-gradient-8" x1="1325.01" y1="-969.43" x2="1309.1" y2="2122.78" xlink:href="#linear-gradient"/><linearGradient id="linear-gradient-9" x1="1450.22" y1="-968.78" x2="1434.31" y2="2123.42" xlink:href="#linear-gradient"/><linearGradient id="linear-gradient-10" x1="1583.91" y1="-968.1" x2="1567.99" y2="2124.11" xlink:href="#linear-gradient"/><linearGradient id="linear-gradient-11" x1="1771.66" y1="-967.13" x2="1755.75" y2="2125.08" xlink:href="#linear-gradient"/></defs><g id="Layer_2" data-name="Layer 2"><g id="Layer_1-2" data-name="Layer 1"><path class="cls-1" d="M114.51,299.16,92.89,315.58c-5.28,4-10.57,8-15.85,12Q47.3,350.15,17.63,372.73L2,384.63,0,386.1v25.79c11.37-8.65,22.4-17,33.42-25.37q42.27-32.11,84.48-64.27a6.59,6.59,0,0,0,.69-.6V296.06Z"/><path class="cls-2" d="M66.06,284.45c31.57-23.81,62.82-47.25,93.87-70.81,25.49-19.34,50.71-38.86,76.16-58.2,2.32-1.76,3.28-3.47,3.25-5.94-.21-8.17-.21-16.37.07-24.54a6.56,6.56,0,0,1,2.45-4.7c18.93-14.48,38-28.88,57.13-43.25q39.69-29.91,79.44-59.85l5.66-4.31,2-1.5V5.23c0-1.68,0-3.42,0-5.23H366.27l-4.7,3.55c-9.91,7.38-19.62,14.89-29.42,22.36L222.07,109.75c-8.29,6.3-16.68,12.58-24.07,18.15l-17.79-11.61c51.91-39.17,103-77.75,154-116.29H300.61l-.34.26-1.45,1c-4.25,3-8.36,6.12-12.44,9.22q-68,51.59-135.91,103.26a6.49,6.49,0,0,0-2.52,4.7c-.14,32-.07,64.06-.07,96.09,0,1-.14,2-.21,3.18H75V111.17c14.26,0,28.11,0,42-.08h4.35l2.11-1.58,1.83-1.36c16.51-12.38,32.92-24.86,49.36-37.29L263.55,3.6c1.52-1.13,3.07-2.23,4.94-3.6H205.87a9.05,9.05,0,0,0-.86.55c-6.5,4.7-12.85,9.51-19.21,14.29Q175,23,164.25,31.11l-11.4,8.56-10.77,8.1-22.39,0q-21.5.16-43,.06H70.37l-4.62,3.52-9.43,7.17Q29.38,79,2.3,99.42L0,101.17V233.85l3.2,2.44L18.53,248q9.84,7.49,19.69,15C47.68,270.26,57.08,277.51,66.06,284.45Zm96.83,54.24q36.42-27.18,72.92-54.32c2.55-1.88,3.55-3.78,3.54-6.5-.11-32.59,0-65.18,0-97.77a22.46,22.46,0,0,0-.41-2.85c-41.21,31.37-81.83,62.36-121.8,93.83l.76.76h30.26v78.09C153.47,345.85,158.14,342.24,162.89,338.69Zm-49,36.61,4.7-3.52V346.72C89.87,368.44,61.32,390,32.39,411.89H65l5.9-4.43.48-.37L105,382ZM375.42,91.36,359.19,78.67,344.2,67c-19.38,15.22-37.75,29.62-56.64,44.38H310V229.8c6-4.52,11.19-8.39,16.34-12.27,18.2-13.77,36.44-27.51,54.5-41.39l5.49-4.2V99.82Zm-3,115.84q-135.21,100.86-269.51,201l-5,3.72h74.46l1.11-.83L183,404c38.75-29,77.74-57.9,116.6-86.83q41.91-31.21,83.69-62.54l3-2.25v-55.5l-.41.32Zm-2,71.36C336,304.36,302.1,329.8,267.56,355.68h15.58l23.48,0,1.38-1.05,9.19-6.83c17.1-12.69,34.16-25.46,51.29-38.12q6.27-4.67,12.54-9.28a21,21,0,0,0,1.83-1.5l3.45-2.6V266.66l-.17.13Z"/><path class="cls-3" d="M492.4,139V355.32H447.23V56.66h63l51.56,178.77V56.66h44.72V355.32H554.92Z"/><path class="cls-4" d="M690.43,56.66V287.05c0,21.34,10,29,26,29s26-7.68,26-29V56.66h47.45V284.07c0,47.78-25.55,75.09-74.83,75.09s-74.83-27.31-74.83-75.09V56.66Z"/><path class="cls-5" d="M809.51,56.66H964.65V99.33H912.18v256H862v-256H809.51Z"/><path class="cls-6" d="M1091.49,355.32c-2.74-7.68-4.56-12.37-4.56-36.69V271.69c0-27.73-10-38-32.86-38h-17.34v121.6H986.54V56.66h75.75c52,0,74.37,22.62,74.37,68.69v23.47c0,30.72-10.49,50.77-32.85,60.58,25.09,9.82,33.31,32.43,33.31,63.57v46.08c0,14.51.45,25.18,5.47,36.27Zm-54.76-256v91.73h19.62c18.71,0,30.12-7.68,30.12-31.57V130.05c0-21.34-7.76-30.72-25.55-30.72Z"/><path class="cls-7" d="M1170,56.66h50.19V355.32H1170Z"/><path class="cls-8" d="M1242.05,56.66h155.14V99.33h-52.47v256h-50.2v-256h-52.47Z"/><path class="cls-9" d="M1419.08,56.66h50.19V355.32h-50.19Z"/><path class="cls-10" d="M1501.66,128.34c0-47.79,26.93-75.09,76.2-75.09s76.2,27.3,76.2,75.09v155.3c0,47.79-26.92,75.09-76.2,75.09s-76.2-27.3-76.2-75.09Zm50.2,158.29c0,21.33,10,29.44,26,29.44s26-8.11,26-29.44V125.35c0-21.33-10-29.44-26-29.44s-26,8.11-26,29.44Z"/><path class="cls-11" d="M1731.17,139V355.32H1686V56.66h63l51.56,178.77V56.66h44.71V355.32h-51.56Z"/></g></g></svg>